<mxfile host="app.diagrams.net" modified="2022-05-04T07:14:39.729Z" agent="5.0 (Windows NT 10.0; Win64; x64) AppleWebKit/537.36 (KHTML, like Gecko) Chrome/101.0.4951.41 Safari/537.36 Edg/101.0.1210.32" etag="vOuFdeICZE-UQ3n7OmoN" version="17.5.0" type="github">
  <diagram id="dWXpDyuZVrXSn8M6qP2D" name="Page-1">
    <mxGraphModel dx="1038" dy="579" grid="1" gridSize="10" guides="1" tooltips="1" connect="1" arrows="1" fold="1" page="1" pageScale="1" pageWidth="850" pageHeight="1100" math="0" shadow="0">
      <root>
        <mxCell id="0" />
        <mxCell id="1" parent="0" />
        <mxCell id="N7Q56Mgiu6uBdUdnxe1M-3" value="" style="edgeStyle=orthogonalEdgeStyle;rounded=0;orthogonalLoop=1;jettySize=auto;html=1;" edge="1" parent="1" source="N7Q56Mgiu6uBdUdnxe1M-1" target="N7Q56Mgiu6uBdUdnxe1M-2">
          <mxGeometry relative="1" as="geometry" />
        </mxCell>
        <mxCell id="N7Q56Mgiu6uBdUdnxe1M-1" value="start" style="rounded=1;whiteSpace=wrap;html=1;" vertex="1" parent="1">
          <mxGeometry x="80" y="30" width="90" height="20" as="geometry" />
        </mxCell>
        <mxCell id="N7Q56Mgiu6uBdUdnxe1M-5" value="" style="edgeStyle=orthogonalEdgeStyle;rounded=0;orthogonalLoop=1;jettySize=auto;html=1;" edge="1" parent="1" source="N7Q56Mgiu6uBdUdnxe1M-2" target="N7Q56Mgiu6uBdUdnxe1M-4">
          <mxGeometry relative="1" as="geometry" />
        </mxCell>
        <mxCell id="N7Q56Mgiu6uBdUdnxe1M-2" value="set the current stock and tower hp" style="rounded=0;whiteSpace=wrap;html=1;" vertex="1" parent="1">
          <mxGeometry x="65" y="90" width="120" height="60" as="geometry" />
        </mxCell>
        <mxCell id="N7Q56Mgiu6uBdUdnxe1M-7" value="" style="edgeStyle=orthogonalEdgeStyle;rounded=0;orthogonalLoop=1;jettySize=auto;html=1;" edge="1" parent="1" source="N7Q56Mgiu6uBdUdnxe1M-4" target="N7Q56Mgiu6uBdUdnxe1M-6">
          <mxGeometry relative="1" as="geometry" />
        </mxCell>
        <mxCell id="N7Q56Mgiu6uBdUdnxe1M-4" value="calculate the stock penalty hp and stock man trigger hp value" style="whiteSpace=wrap;html=1;rounded=0;" vertex="1" parent="1">
          <mxGeometry x="65" y="190" width="120" height="60" as="geometry" />
        </mxCell>
        <mxCell id="N7Q56Mgiu6uBdUdnxe1M-9" style="edgeStyle=orthogonalEdgeStyle;rounded=0;orthogonalLoop=1;jettySize=auto;html=1;entryX=0.5;entryY=0;entryDx=0;entryDy=0;" edge="1" parent="1" source="N7Q56Mgiu6uBdUdnxe1M-6" target="N7Q56Mgiu6uBdUdnxe1M-8">
          <mxGeometry relative="1" as="geometry" />
        </mxCell>
        <mxCell id="N7Q56Mgiu6uBdUdnxe1M-6" value="call&amp;nbsp;checkStockStatus" style="rounded=1;whiteSpace=wrap;html=1;fillColor=#f8cecc;gradientColor=#ea6b66;strokeColor=#b85450;" vertex="1" parent="1">
          <mxGeometry x="65" y="280" width="120" height="60" as="geometry" />
        </mxCell>
        <mxCell id="N7Q56Mgiu6uBdUdnxe1M-11" value="" style="edgeStyle=orthogonalEdgeStyle;rounded=0;orthogonalLoop=1;jettySize=auto;html=1;" edge="1" parent="1" source="N7Q56Mgiu6uBdUdnxe1M-8" target="N7Q56Mgiu6uBdUdnxe1M-10">
          <mxGeometry relative="1" as="geometry" />
        </mxCell>
        <mxCell id="N7Q56Mgiu6uBdUdnxe1M-8" value="construct the stock object" style="rounded=0;whiteSpace=wrap;html=1;" vertex="1" parent="1">
          <mxGeometry x="270" y="60" width="120" height="60" as="geometry" />
        </mxCell>
        <mxCell id="N7Q56Mgiu6uBdUdnxe1M-10" value="end" style="ellipse;whiteSpace=wrap;html=1;rounded=0;" vertex="1" parent="1">
          <mxGeometry x="280" y="180" width="100" height="30" as="geometry" />
        </mxCell>
      </root>
    </mxGraphModel>
  </diagram>
</mxfile>
